#!OML:ASF H:\Terrain\Patient Classification 1\Takeo\Monday\TakeoMonday.ASF
:FULLY-SPECIFIED
:DEGREES
157
root 10.5228 17.0727 -3.31873 -3.05167 -6.62071 2.91308
lowerback 9.39024 0.634042 -0.384422
upperback 1.67096 0.751164 -1.25753
thorax -3.51663 0.370184 -1.17875
lowerneck -14.5843 0.769943 -2.86208
upperneck -6.82251 1.41827 -0.461861
head 0.246913 0.755431 0.394308
rclavicle -1.02188e-015 -2.65874e-015
rhumerus -26.9363 9.34712 -90.2493
rradius 41.3677
rwrist -18.721
rhand -31.1142 21.7502
rfingers 7.12502
rthumb -4.39338 -8.18422
lclavicle -1.02188e-015 -2.65874e-015
lhumerus -38.3874 13.1252 82.74
lradius 29.2389
lwrist 24.3914
lhand -25.5274 21.278
lfingers 7.12502
lthumb 1.00221 51.2554
rfemur -10.9764 7.34332 18.882
rtibia 73.2762
rfoot 3.90341 -14.7792
rtoes -21.8825
lfemur -17.5969 -4.01628 -27.7478
ltibia 40.8652
lfoot -16.9799 8.30798
ltoes -3.94429
158
root 10.5202 17.1049 -3.09055 -2.87829 -6.2765 3.31298
lowerback 9.17066 0.513821 -0.798316
upperback 1.56448 0.548546 -1.36274
thorax -3.5115 0.273862 -1.02845
lowerneck -14.444 0.868549 -2.66688
upperneck -6.75357 1.51565 -0.500717
head 0.24662 0.798772 0.353125
rclavicle 3.73964e-015 -1.05107e-014
rhumerus -27.7416 8.26149 -90.4435
rradius 39.4185
rwrist -18.174
rhand -31.2489 21.7061
rfingers 7.12502
rthumb -4.52346 -8.22559
lclavicle 3.73964e-015 -1.05107e-014
lhumerus -37.6313 11.5616 83.7143
lradius 30.6404
lwrist 25.6619
lhand -26.6999 19.1689
lfingers 7.12502
lthumb -0.130196 49.1486
rfemur -13.0753 7.02337 18.3232
rtibia 73.7319
rfoot 1.92021 -15.2148
rtoes -21.3694
lfemur -16.489 -4.19859 -28.3281
ltibia 39.9767
lfoot -17.1302 8.03935
ltoes -1.67162
159
root 10.5173 17.1404 -2.85689 -2.89313 -5.83983 3.44621
lowerback 8.98123 0.380501 -0.933966
upperback 1.65776 0.364104 -1.34497
thorax -3.31255 0.183878 -0.909149
lowerneck -14.6854 0.946288 -2.69565
upperneck -6.35573 1.63644 -0.420794
head 0.412472 0.856167 0.39353
rclavicle -3.73342e-015 3.52843e-015
rhumerus -28.3317 7.21354 -90.4479
rradius 37.5419
rwrist -17.9392
rhand -31.3604 21.9133
rfingers 7.12502
rthumb -4.63116 -8.01604
lclavicle -3.73342e-015 3.52843e-015
lhumerus -36.7776 10.5081 84.4248
lradius 32.1479
lwrist 25.8535
lhand -26.2124 17.9089
lfingers 7.12502
lthumb 0.340593 47.8883
rfemur -14.8175 6.62392 18.1285
rtibia 73.8568
rfoot 0.63023 -15.4906
rtoes -20.1991
lfemur -15.1393 -4.41331 -28.6444
ltibia 39.1167
lfoot -17.2727 7.83822
ltoes -2.18102
160
root 10.5203 17.1825 -2.61176 -3.10949 -5.483 3.71497
lowerback 8.86079 0.32782 -1.08897
upperback 1.78915 0.282488 -1.39412
thorax -3.11069 0.144358 -0.861611
lowerneck -14.4689 0.992761 -2.88322
upperneck -6.06766 1.72591 -0.210975
head 0.466835 0.905826 0.495143
rclavicle -4.93234e-015 -1.04362e-015
rhumerus -28.9834 5.96772 -90.311
rradius 35.6141
rwrist -17.4518
rhand -31.5569 21.1087
rfingers 7.12502
rthumb -4.82089 -8.81645
lclavicle -4.93234e-015 -1.04362e-015
lhumerus -35.9852 9.15741 85.1655
lradius 33.6725
lwrist 26.2517
lhand -25.0606 18.8656
lfingers 7.12502
lthumb 1.45309 48.8404
rfemur -16.1933 6.43617 17.7642
rtibia 73.6567
rfoot 0.05719 -15.5242
rtoes -17.5596
lfemur -13.5121 -4.6243 -29.1729
ltibia 38.3379
lfoot -17.804 7.81394
ltoes -2.25816
161
root 10.5238 17.2135 -2.37599 -3.20839 -5.0614 3.94208
lowerback 8.95058 0.145865 -1.31218
upperback 1.66712 0.0158984 -1.39218
thorax -3.28888 0.0146512 -0.704529
lowerneck -13.8483 1.03559 -2.98806
upperneck -5.97006 1.77911 -0.169693
head 0.394828 0.934818 0.522412
rclavicle -3.37313e-015 3.37934e-015
rhumerus -30.0947 5.195 -90.2692
rradius 33.8969
rwrist -17.0624
rhand -31.7379 20.174
rfingers 7.12502
rthumb -4.99564 -9.74709
lclavicle -3.37313e-015 3.37934e-015
lhumerus -35.6754 7.60169 85.9004
lradius 35.4957
lwrist 27.5055
lhand -24.7559 20.6593
lfingers 7.12502
lthumb 1.74735 50.6319
rfemur -17.5701 6.2869 17.4547
rtibia 73.2031
rfoot -1.31109 -15.8005
rtoes -15.628
lfemur -12.0761 -5.07312 -29.6435
ltibia 37.6562
lfoot -18.4742 7.69758
ltoes 0.666238
162
root 10.5174 17.2293 -2.15902 -3.06151 -4.47776 3.54956
lowerback 9.08511 -0.100475 -1.02621
upperback 1.52202 -0.282057 -1.20747
thorax -3.5153 -0.13456 -0.639445
lowerneck -13.7768 1.05903 -3.56454
upperneck -5.73365 1.89709 0.440815
head 0.450369 1.01174 0.818661
rclavicle 1.16103e-014 1.32192e-014
rhumerus -31.2291 4.37088 -90.1045
rradius 32.534
rwrist -16.8557
rhand -31.6268 20.1908
rfingers 7.12502
rthumb -4.88836 -9.73276
lclavicle 1.16103e-014 1.32192e-014
lhumerus -35.1921 6.15695 86.5377
lradius 37.4305
lwrist 28.6906
lhand -24.5956 22.2192
lfingers 7.12502
lthumb 1.90211 52.1905
rfemur -19.2376 6.09796 17.9422
rtibia 72.5312
rfoot -2.90271 -16.118
rtoes -15.01
lfemur -11.1068 -5.58953 -29.343
ltibia 37.0783
lfoot -18.7253 7.57532
ltoes 1.50864
163
root 10.5079 17.2495 -1.93477 -2.9034 -3.84586 3.38959
lowerback 8.98648 -0.228794 -0.893507
upperback 1.59201 -0.4332 -1.11713
thorax -3.38869 -0.210883 -0.602822
lowerneck -14.269 0.994726 -4.26171
upperneck -5.38618 1.94023 1.15469
head 0.636234 1.05503 1.17869
rclavicle -2.67117e-014 -6.65929e-015
rhumerus -31.9776 2.88911 -89.6664
rradius 31.2184
rwrist -16.2766
rhand -31.4853 20.1025
rfingers 7.12502
rthumb -4.75172 -9.82417
lclavicle -2.67117e-014 -6.65929e-015
lhumerus -34.2491 4.91268 87.0981
lradius 39.2448
lwrist 29.2154
lhand -24.0422 23.9134
lfingers 7.12502
lthumb 2.43663 53.8793
rfemur -20.9298 5.85113 18.1001
rtibia 71.6408
rfoot -4.02905 -15.8647
rtoes -15.0057
lfemur -10.206 -5.86074 -29.3022
ltibia 36.5148
lfoot -18.6242 7.7535
ltoes -2.09895
164
root 10.5033 17.2691 -1.7028 -2.66001 -3.35443 3.38454
lowerback 8.64735 -0.31092 -0.76737
upperback 1.65337 -0.523522 -1.10225
thorax -3.13797 -0.257396 -0.64946
lowerneck -14.7614 0.848011 -4.22756
upperneck -4.77425 1.76638 0.949536
head 0.924725 0.957044 1.11271
rclavicle -4.96962e-016 -2.28602e-015
rhumerus -32.6764 1.69654 -89.3371
rradius 29.8389
rwrist -15.7926
rhand -31.6802 19.3847
rfingers 7.12502
rthumb -4.93992 -10.5378
lclavicle -4.96962e-016 -2.28602e-015
lhumerus -33.5555 3.92128 87.5846
lradius 41.2973
lwrist 29.3195
lhand -23.5962 25.2093
lfingers 7.12502
lthumb 2.86737 55.1698
rfemur -22.5961 5.67483 17.9876
rtibia 70.5092
rfoot -4.87885 -15.4243
rtoes -16.0795
lfemur -9.29582 -5.96775 -29.47
ltibia 35.9251
lfoot -18.8016 7.94579
ltoes -5.22936
165
root 10.5081 17.2737 -1.46301 -2.71846 -2.81033 3.56131
lowerback 8.52908 -0.478969 -0.813503
upperback 1.617 -0.749125 -1.09116
thorax -3.11049 -0.368979 -0.58762
lowerneck -14.4558 0.850051 -3.89405
upperneck -4.44377 1.70948 0.415288
head 0.986218 0.907605 0.88072
rclavicle -2.85753e-015 -3.77691e-015
rhumerus -33.6797 1.09435 -89.0386
rradius 28.3742
rwrist -15.3305
rhand -31.8809 17.9128
rfingers 7.12502
rthumb -5.13374 -12.005
lclavicle -2.85753e-015 -3.77691e-015
lhumerus -33.4288 2.97158 88.0561
lradius 43.5485
lwrist 29.8739
lhand -23.5235 25.6723
lfingers 7.12502
lthumb 2.9375 55.6318
rfemur -23.6616 5.3383 17.6315
rtibia 69.1857
rfoot -6.05123 -14.9771
rtoes -16.5275
lfemur -7.84426 -6.33647 -29.9018
ltibia 35.2294
lfoot -19.4351 7.72895
ltoes -4.05577
166
root 10.5095 17.2778 -1.21939 -3.00462 -2.19833 3.80999
lowerback 8.71898 -0.651011 -1.13924
upperback 1.59858 -1.00769 -1.00812
thorax -3.22917 -0.493435 -0.287775
lowerneck -14.0083 0.968909 -3.84909
upperneck -4.42454 1.84208 0.309213
head 0.914276 0.970816 0.84021
rclavicle 6.57232e-015 1.19271e-014
rhumerus -34.8524 0.426972 -88.501
rradius 27.0253
rwrist -14.6642
rhand -31.6747 16.9023
rfingers 7.12502
rthumb -4.93466 -13.0203
lclavicle 6.57232e-015 1.19271e-014
lhumerus -33.2071 1.93644 88.5302
lradius 45.5381
lwrist 30.5013
lhand -23.1803 24.6365
lfingers 7.12502
lthumb 3.26902 54.5912
rfemur -24.308 5.00355 17.2076
rtibia 67.624
rfoot -7.93536 -14.346
rtoes -15.8791
lfemur -6.11654 -6.59123 -30.3721
ltibia 34.4904
lfoot -19.9835 7.25028
ltoes -1.33826
